<?xml version="1.0" standalone="no"?>
<!DOCTYPE svg PUBLIC "-//W3C//DTD SVG 20010904//EN"
 "http://www.w3.org/TR/2001/REC-SVG-20010904/DTD/svg10.dtd">
<svg version="1.0" xmlns="http://www.w3.org/2000/svg"
 width="100.000000pt" height="100.000000pt" viewBox="0 0 100.000000 100.000000"
 preserveAspectRatio="xMidYMid meet">

<g transform="translate(0.000000,100.000000) scale(0.100000,-0.100000)"
fill="#000000" stroke="none">
<path d="M435 989 c-116 -15 -206 -61 -292 -152 -95 -100 -135 -201 -134 -340
0 -143 49 -255 154 -354 99 -94 201 -135 337 -135 136 0 238 41 337 135 106
100 154 211 154 357 0 146 -48 257 -154 357 -114 108 -245 151 -402 132z m257
-91 c92 -46 167 -122 211 -215 30 -64 32 -74 32 -183 0 -109 -2 -119 -32 -183
-44 -93 -119 -169 -212 -215 -73 -36 -77 -37 -191 -37 -114 0 -118 1 -191 37
-93 46 -168 122 -212 215 -30 64 -32 74 -32 183 0 109 2 119 32 182 54 114
146 197 268 241 38 13 74 17 151 15 93 -3 106 -6 176 -40z"/>
</g>
</svg>
